<?xml version="1.0" encoding="UTF-8"?>
<!DOCTYPE svg PUBLIC "-//W3C//DTD SVG 1.1//EN" "http://www.w3.org/Graphics/SVG/1.1/DTD/svg11.dtd">
<svg xmlns="http://www.w3.org/2000/svg" version="1.1" width="187px" height="190px" style="shape-rendering:geometricPrecision; text-rendering:geometricPrecision; image-rendering:optimizeQuality; fill-rule:evenodd; clip-rule:evenodd" xmlns:xlink="http://www.w3.org/1999/xlink">
<g><path style="opacity:1" fill="#000066" d="M -0.5,-0.5 C 61.8333,-0.5 124.167,-0.5 186.5,-0.5C 186.5,62.8333 186.5,126.167 186.5,189.5C 124.167,189.5 61.8333,189.5 -0.5,189.5C -0.5,126.167 -0.5,62.8333 -0.5,-0.5 Z"/></g>
<g><path style="opacity:1" fill="#fbfbfc" d="M 88.5,80.5 C 89.2852,78.6264 89.9518,76.6264 90.5,74.5C 95.1667,71.1667 99.8333,67.8333 104.5,64.5C 105.167,69.5 105.833,74.5 106.5,79.5C 108.833,82.5 111.5,85.1667 114.5,87.5C 114.56,88.0431 114.893,88.3764 115.5,88.5C 116.833,73.8333 116.833,59.1667 115.5,44.5C 114.893,44.6236 114.56,44.9569 114.5,45.5C 106.193,51.1467 98.1933,57.1467 90.5,63.5C 90.1667,63.5 89.8333,63.5 89.5,63.5C 89.5,52.1667 89.5,40.8333 89.5,29.5C 102.439,29.318 114.439,32.4847 125.5,39C 140.587,54.3703 142.42,71.2036 131,89.5C 125.294,96.1054 118.127,100.272 109.5,102C 102.528,103.109 95.5276,103.942 88.5,104.5C 88.5,96.5 88.5,88.5 88.5,80.5 Z"/></g>
<g><path style="opacity:1" fill="#babad5" d="M 114.5,45.5 C 114.56,44.9569 114.893,44.6236 115.5,44.5C 116.833,59.1667 116.833,73.8333 115.5,88.5C 114.893,88.3764 114.56,88.0431 114.5,87.5C 115.833,73.5 115.833,59.5 114.5,45.5 Z"/></g>
<g><path style="opacity:1" fill="#040267" d="M 114.5,45.5 C 115.833,59.5 115.833,73.5 114.5,87.5C 111.5,85.1667 108.833,82.5 106.5,79.5C 106.828,74.1254 106.495,68.7921 105.5,63.5C 104.893,63.6236 104.56,63.9569 104.5,64.5C 99.8333,67.8333 95.1667,71.1667 90.5,74.5C 89.2134,70.9351 89.2134,67.2684 90.5,63.5C 98.1933,57.1467 106.193,51.1467 114.5,45.5 Z"/></g>
<g><path style="opacity:1" fill="#f3f3f8" d="M 88.5,63.5 C 88.5,67.5 88.5,71.5 88.5,75.5C 83.2731,71.6297 78.1064,67.6297 73,63.5C 72.6667,69.5 72.3333,75.5 72,81.5C 69.146,83.5977 66.4794,85.931 64,88.5C 63.3333,74.1667 63.3333,59.8333 64,45.5C 72.0445,51.7177 80.2112,57.7177 88.5,63.5 Z"/></g>
<g><path style="opacity:1" fill="#7f80b2" d="M 104.5,64.5 C 104.56,63.9569 104.893,63.6236 105.5,63.5C 106.495,68.7921 106.828,74.1254 106.5,79.5C 105.833,74.5 105.167,69.5 104.5,64.5 Z"/></g>
<g><path style="opacity:1" fill="#3e3e8b" d="M 88.5,63.5 C 88.8333,63.5 89.1667,63.5 89.5,63.5C 89.8333,63.5 90.1667,63.5 90.5,63.5C 89.2134,67.2684 89.2134,70.9351 90.5,74.5C 89.9518,76.6264 89.2852,78.6264 88.5,80.5C 88.5,78.8333 88.5,77.1667 88.5,75.5C 88.5,71.5 88.5,67.5 88.5,63.5 Z"/></g>
<g><path style="opacity:1" fill="#dfdfec" d="M 125.5,129.5 C 128.861,130.203 129.194,131.537 126.5,133.5C 124.358,132.563 124.024,131.23 125.5,129.5 Z"/></g>
<g><path style="opacity:1" fill="#eeeef5" d="M 52.5,131.5 C 55.5184,131.335 58.5184,131.502 61.5,132C 65.5,135 65.5,138 61.5,141C 59.5273,141.495 57.5273,141.662 55.5,141.5C 55.5,142.833 55.5,144.167 55.5,145.5C 54.5,145.5 53.5,145.5 52.5,145.5C 52.5,140.833 52.5,136.167 52.5,131.5 Z"/></g>
<g><path style="opacity:1" fill="#020167" d="M 55.5,134.5 C 57.1667,134.5 58.8333,134.5 60.5,134.5C 60.5,135.833 60.5,137.167 60.5,138.5C 58.8333,138.5 57.1667,138.5 55.5,138.5C 55.5,137.167 55.5,135.833 55.5,134.5 Z"/></g>
<g><path style="opacity:1" fill="#dad9e8" d="M 67.5,134.5 C 75.1558,134.167 78.1558,137.833 76.5,145.5C 74.2895,144.417 72.1229,144.417 70,145.5C 66.2552,145.116 65.0886,143.282 66.5,140C 74.4238,139.129 74.4238,137.962 66.5,136.5C 66.8627,135.817 67.1961,135.15 67.5,134.5 Z"/></g>
<g><path style="opacity:1" fill="#eae9f2" d="M 91.5,134.5 C 96.7133,134.946 102.047,135.112 107.5,135C 108,135.5 108.5,136 109,136.5C 109.498,139.482 109.665,142.482 109.5,145.5C 108.5,145.5 107.5,145.5 106.5,145.5C 106.663,143.143 106.497,140.81 106,138.5C 104.667,137.167 103.333,137.167 102,138.5C 101.503,140.81 101.337,143.143 101.5,145.5C 100.5,145.5 99.5,145.5 98.5,145.5C 98.5,142.833 98.5,140.167 98.5,137.5C 97.1667,137.5 95.8333,137.5 94.5,137.5C 94.5,140.167 94.5,142.833 94.5,145.5C 93.5,145.5 92.5,145.5 91.5,145.5C 91.5,141.833 91.5,138.167 91.5,134.5 Z"/></g>
<g><path style="opacity:1" fill="#dddcea" d="M 113.5,134.5 C 121.156,134.167 124.156,137.833 122.5,145.5C 119.482,145.665 116.482,145.498 113.5,145C 111.473,143.604 111.14,141.938 112.5,140C 120.424,139.129 120.424,137.962 112.5,136.5C 112.863,135.817 113.196,135.15 113.5,134.5 Z"/></g>
<g><path style="opacity:1" fill="#e5e5ef" d="M 132.5,134.5 C 141.044,134.831 141.378,135.997 133.5,138C 134.949,139.117 136.616,139.784 138.5,140C 139.833,141.667 139.833,143.333 138.5,145C 135.854,145.497 133.187,145.664 130.5,145.5C 130.281,144.325 130.614,143.325 131.5,142.5C 133.198,143.681 134.865,143.681 136.5,142.5C 130.865,141.605 129.532,138.938 132.5,134.5 Z"/></g>
<g><path style="opacity:1" fill="#e1e1ed" d="M 77.5,134.5 C 78.552,134.351 79.552,134.517 80.5,135C 82.2156,141.921 84.2156,142.088 86.5,135.5C 87.5,134.167 88.5,134.167 89.5,135.5C 87.5699,139.458 85.7365,143.458 84,147.5C 82.2111,149.229 80.0444,149.896 77.5,149.5C 77.5,148.5 77.5,147.5 77.5,146.5C 78.8333,146.5 80.1667,146.5 81.5,146.5C 80.3682,142.438 79.0349,138.438 77.5,134.5 Z"/></g>
<g><path style="opacity:1" fill="#c7c5dd" d="M 124.5,134.5 C 125.833,134.5 127.167,134.5 128.5,134.5C 128.5,138.167 128.5,141.833 128.5,145.5C 127.167,145.5 125.833,145.5 124.5,145.5C 124.5,141.833 124.5,138.167 124.5,134.5 Z"/></g>
<g><path style="opacity:1" fill="#10096b" d="M 69.5,141.5 C 70.675,141.281 71.675,141.614 72.5,142.5C 70.9483,143.798 69.9483,143.465 69.5,141.5 Z"/></g>
<g><path style="opacity:1" fill="#31237a" d="M 114.5,141.5 C 115.978,141.238 117.311,141.571 118.5,142.5C 117.833,142.833 117.167,143.167 116.5,143.5C 115.287,143.253 114.62,142.586 114.5,141.5 Z"/></g>
</svg>
